<svg xmlns="http://www.w3.org/2000/svg" width="20315" height="2835" viewBox="0 0 20315 2835">
  <defs>
    <style>
      .cls-1 {
        fill: #fff;
        stroke: #000;
        stroke-width: 1px;
      }

      .cls-1, .cls-2, .cls-3 {
        fill-rule: evenodd;
      }

      .cls-2 {
        fill: #0048ff;
      }

      .cls-3 {
        fill: #20da38;
      }
    </style>
  </defs>
  <path id="Retângulo_Arredondado_1" data-name="Retângulo Arredondado 1" class="cls-1" d="M3102,0H17213c189.4,0,343,153.566,343,343V2492c0,189.43-153.6,343-343,343H3102c-189.43,0-343-153.57-343-343V343C2759,153.566,2912.57,0,3102,0Z"/>
  <path id="Finance" class="cls-2" d="M3274.68,2015.47l188.86,1.76V1978.5l0.86-117.96,8.57-316.9q137.19-4.41,253.29-4.41,68.58,0,210.21,4.39,0-93.975,9.67-260.03-126.615,2.655-188.16,2.64H3615.54l-127.48-3,8.08-204q145.125-1.725,175.01-1.75h173.27l61.56,0.88,61.56,0.87,76.52,2.64q0-62.415,14.08-264.639-211.995,1.782-441.57,1.766-227.805,0-492.57-1.766v96.7q0,96.7-9.58,376.705t-20.03,440q-6.99,108.135-25.25,286.59,183.585-1.755,205.54-1.76h0Zm1115.38-1010q79.92,0,166.86,1.76,0-33.443,1.75-58.092L4563.95,840q0.87-18.468,3.52-45.766-74.67,1.782-173.89,1.766-72,0-178.27-1.766,0.87,29.931.88,47.532,0,60.75-5.27,165.467,96.585-1.755,179.14-1.76h0Zm-38.95,1010q75.66,0,180.34,1.76,0-89.6,3.52-339.12,1.755-140.565,8.37-266.19t21.58-291.69q-116.955,1.755-179.36,1.75-68.6,0-182.89-1.75-2.67,173.085-7.08,303.99-4.425,130.89-10.17,238.95t-11.94,177.47q-6.18,69.42-18.56,176.59,121.41-1.755,196.19-1.76h0Zm552.93,0q83.4,0,171.19,1.76,3.45-151.125,13.41-296.97,9.93-145.845,34.56-209.54,24.615-63.705,69.91-97.1,45.27-33.375,96.26-33.39,58.035,0,96.27,39.11,38.25,39.12,38.25,138.41,0,64.14-8.75,221.84t-16.6,237.64q86.07-1.755,190.57-1.76,77.265,0,165.98,1.76,0-79.95,4.41-173.95l15-318.05q7.02-110.67,7.04-144.08a443.7,443.7,0,0,0-8.78-88.78q-8.79-43.08-36.01-80.42a238.048,238.048,0,0,0-67.61-62.41q-40.41-25.05-100.55-38.68a571.99,571.99,0,0,0-210.77-7.03,500.6,500.6,0,0,0-76.84,18.03,345.566,345.566,0,0,0-66.31,29.47q-31.17,18.045-52.25,36.93-21.075,18.915-50.05,51.46l9.17-119.49q-81.75,1.755-170.51,1.75-76.485,0-181.96-1.75-2.64,215.25-16.31,456.41t-39.22,440.59q102.705-1.755,190.5-1.76h0Zm1497.88-725.24q54.54,0,82.7,18.1t28.16,51.64a61.5,61.5,0,0,1-4.41,23.2q-4.41,10.95-14.52,21-10.125,10.08-26.4,17.55t-54.56,17.57q-38.31,10.125-84.05,18.89-110.01,21.12-181.75,44.86T6034,1553.59a309.765,309.765,0,0,0-72.18,64.63q-30.8,37.8-45.32,77.36a232.822,232.822,0,0,0-14.52,80.89q0,67.71,39.16,135.4,39.135,67.7,111.73,98.03,72.585,30.315,181.69,30.33,67.725,0,143.42-12,35.34-130.215,61-198-37.125,12-58.34,15a284.75,284.75,0,0,1-39.77,3q-52.17,0-76.03-21.06-23.865-21.075-23.86-50.92a73.691,73.691,0,0,1,8.39-35.11q8.385-15.8,28.25-30.74,19.875-14.895,46.81-24.57,26.94-9.66,74.63-23.71,47.67-14.04,66.67-21.06,18.99-7.035,52.55-22.83-15.525,302.34-28.3,399,93.165-1.755,175.8-1.76,85.23,0,171.39,1.76,7.125-279.42,20.48-451.64t13.38-221.44q0-96.645-48.39-148.5t-134.58-75.12q-86.205-23.295-190-23.3-182.085,0-434.96,55-9.645,70.245-14.04,103.16-4.41,32.925-21.08,119.84,222.615-84.975,373.94-85h0Zm815.4,725.24q83.4,0,171.19,1.76,3.45-151.125,13.41-296.97,9.93-145.845,34.56-209.54t69.91-97.1q45.27-33.375,96.26-33.39,58.035,0,96.27,39.11,38.25,39.12,38.25,138.41,0,64.14-8.75,221.84t-16.6,237.64q86.07-1.755,190.57-1.76,77.265,0,165.98,1.76,0-79.95,4.41-173.95l15-318.05q7.02-110.67,7.04-144.08a443.7,443.7,0,0,0-8.78-88.78q-8.79-43.08-36.01-80.42a238.048,238.048,0,0,0-67.61-62.41q-40.41-25.05-100.55-38.68a571.99,571.99,0,0,0-210.77-7.03,500.6,500.6,0,0,0-76.84,18.03,345.566,345.566,0,0,0-66.31,29.47q-31.17,18.045-52.25,36.93-21.075,18.915-50.05,51.46l9.17-119.49q-81.75,1.755-170.51,1.75-76.485,0-181.96-1.75-2.64,215.25-16.31,456.41t-39.22,440.59q102.7-1.755,190.5-1.76h0Zm1713.85-253.1q-30.405,7.5-71.36,13.69-40.98,6.18-70.93,6.17-59.01,0-108.35-22.89-49.35-22.875-71.8-68.67-22.485-45.78-22.47-113.58,0-66.885,25.08-117.53,25.08-50.625,77.42-77.47,52.365-26.865,121.87-26.86,96.81,0,222.63,44l-5.38-78.17q-4.47-71.13-5.81-104.08-1.35-32.925-4.01-64.55l-1.8-20.2q-93.135-21.87-156.41-28.44a1218.076,1218.076,0,0,0-125.64-6.56q-106.3,0-194.18,22.42t-159.91,87.88q-72.045,65.475-108.95,166.55a607.409,607.409,0,0,0-36.91,210.03q0,118.665,37.81,214.43,31.665,81.75,101.16,141.5a385.774,385.774,0,0,0,153.03,80.86q72.12,19.32,167.98,19.33,131.94,0,270.02-33l22.87-140.72q16.725-94.1,21.13-129.28Q8961.565,1754.885,8931.17,1762.37Zm925.2,35.19q-74.34,13.68-132.41,13.67-97.68,0-165.42-44.62t-67.73-139.13q0-11.37.87-25.37l617.12-.88q10.95-61.455,11-111.51,0-84.285-26.8-157.18-26.85-72.855-90.1-130.82-63.345-57.945-154.33-81.22-90.975-23.25-191.2-23.27a707.738,707.738,0,0,0-189.03,25.47q-92.325,25.455-163.1,86.05t-115.61,168.14q-44.835,107.55-44.82,219.94a543.737,543.737,0,0,0,22.4,155.42q22.41,75.51,65.5,130.37,43.08,54.9,106.82,91.77t151.65,51.36q87.915,14.475,192.53,14.48,71.205,0,140.66-6.51,69.45-6.525,171.44-26.49,32.535-203.01,43.99-256Q9930.705,1783.885,9856.37,1797.56Zm-345.31-384.89q6.18-19.635,19.4-40.59a152.922,152.922,0,0,1,33.08-37.1,141.374,141.374,0,0,1,44.55-24.45,159.62,159.62,0,0,1,51.17-8.3q37.92,0,68.36,14.85,30.42,14.85,46.75,47.14,16.3,32.295,16.33,77.7,0,10.47-.89,25.31h-291.1Q9504.875,1432.31,9511.06,1412.67Z"/>
  <path id="_" data-name="$" class="cls-3" d="M16049.1,1963.48q69.3,23.01,117.1,33.64,47.85,10.635,118.9,20.36v36.11q0,94.215-4,155.89,109.8-1.785,166-1.77,56.25,0,152,1.77-0.9-51.885-.9-107.3l1.9-111.7q61.2-25.5,92.8-44.84a401.062,401.062,0,0,0,61.2-46.61,331.109,331.109,0,0,0,52.6-61.57,270.847,270.847,0,0,0,34.5-75.18q11.85-40.875,11.9-87.5,0-56.28-21.9-113.88t-75.8-121.78q-53.85-64.2-167.7-171.48-31.5-29.91-48.6-54.52c-11.4-16.41-17-34-17-52.77,0-21.68,9.7-39.42,29.3-53.2s44.3-20.67,74.1-20.67q39.45,0,99.5,14.16,60,14.145,131.1,46.84-10.8-152.76-17-295a1313.06,1313.06,0,0,0-171-36V740.838q0-16.71,4-114.359-87.9,1.781-158.1,1.765-63.3,0-158.9-1.765V726.823l0.8,57.2q0,5.3-1.8,33.453-75.45,19.335-113.6,37.344a301.979,301.979,0,0,0-70.2,46.109,305.322,305.322,0,0,0-54.8,63.234,290.436,290.436,0,0,0-34.6,74.224,272.51,272.51,0,0,0-11.8,79.48q0,51.84,19.7,105.84a332.812,332.812,0,0,0,55.7,97.94q46.5,56.235,186.9,192.36,49.2,47.445,56.2,54.47a170.784,170.784,0,0,1,16.6,20.64q9.75,13.62,14.1,22.39a83.255,83.255,0,0,1,6.6,18.89,97.146,97.146,0,0,1,2.2,19.75c0,26.36-10.9,47-32.5,61.94s-47.6,22.39-78,22.39q-51.75,0-123.7-17.61-71.85-17.625-157.8-56.39,7.8,82.575,14,303h0Z"/>
</svg>
