<?xml version="1.0" standalone="no"?>
<!DOCTYPE svg PUBLIC "-//W3C//DTD SVG 20010904//EN"
 "http://www.w3.org/TR/2001/REC-SVG-20010904/DTD/svg10.dtd">
<svg version="1.0" xmlns="http://www.w3.org/2000/svg"
 width="988.000000pt" height="988.000000pt" viewBox="0 0 988.000000 988.000000"
 preserveAspectRatio="xMidYMid meet">
<metadata>
Created by potrace 1.11, written by Peter Selinger 2001-2013
</metadata>
<g transform="translate(0.000000,988.000000) scale(0.100000,-0.100000)"
fill="#000000" stroke="none">
<path d="M5228 9869 c-65 -9 -103 -26 -135 -61 -33 -35 -41 -65 -58 -224 -8
-81 -17 -149 -19 -151 -2 -3 -21 4 -41 15 l-37 19 -62 -33 c-33 -19 -988 -528
-2121 -1132 l-2060 -1098 0 -2274 0 -2273 1720 -918 1720 -917 -2 -33 c0 -19
-16 -175 -34 -346 -28 -269 -31 -316 -19 -338 19 -36 51 -53 138 -76 101 -26
374 -28 467 -4 118 31 139 64 156 252 7 73 16 138 20 144 5 9 17 6 42 -8 l34
-21 2124 1132 2124 1133 0 2273 0 2273 -1717 916 c-944 504 -1719 918 -1722
921 -3 3 10 143 29 310 39 344 41 377 21 424 -19 47 -96 82 -206 96 -98 12
-279 11 -362 -1z"/>
</g>
</svg>
